<svg id="Layer_1" data-name="Layer 1" xmlns="http://www.w3.org/2000/svg" viewBox="0 0 512 512"><defs><style>.cls-1{fill:#ffefd6;}.cls-2{fill:#3d3c3c;}.cls-3{fill:#b3233b;}.cls-4{fill:#e2a379;}.cls-5{fill:#f4b382;}.cls-6{fill:#d6876b;}.cls-7{fill:#cc785e;}.cls-8{fill:#4c230c;}.cls-9{fill:#602f0f;}</style></defs><title>tree pose</title><path class="cls-1" d="M7.92,256C7.92,119,119,7.92,256,7.92S504.08,119,504.08,256,393,504.08,256,504.08,7.92,393,7.92,256Z"/><path class="cls-2" d="M228.33,242.94l1.19,20.3s16.9,6.66,24.15,6.66,28.82-6.66,28.82-6.66l1.19-20.3Z"/><path class="cls-3" d="M282.49,175.67c1.88-11.47-7.51-32.44-7.51-32.44a109.29,109.29,0,0,0-12.72-.79H249.71a108.83,108.83,0,0,0-12.68.78s-9.39,21-7.51,32.44c1.75,10.71,4.8,26.39-1.19,67.27h55.35C277.69,202.06,280.74,186.38,282.49,175.67Z"/><path class="cls-4" d="M264.45,130.94H247.53c2.64,8,.21,11.59.21,11.59s.51,5.22,8.25,5.22,8.23-5.22,8.23-5.22S261.81,138.9,264.45,130.94Z"/><path class="cls-5" d="M273.33,107.69c0-20.1-7.76-24.7-17.34-24.7s-17.34,4.6-17.34,24.7a39.79,39.79,0,0,0,3,16.24c4,9,10.94,12.21,14.3,12.21s10.29-3.16,14.3-12.21A39.79,39.79,0,0,0,273.33,107.69Z"/><path class="cls-6" d="M260.88,127.89a11.06,11.06,0,0,1-9.79,0,5,5,0,0,1,2.6-2.24,7.42,7.42,0,0,1,2.3.54,7.17,7.17,0,0,1,2.27-.54C259.32,125.8,260.88,127.89,260.88,127.89Z"/><path class="cls-7" d="M260.88,127.89a7,7,0,0,1-9.79,0s.51-.61,3.37-.79c.48,0,1.11.35,1.53.35s.91-.39,1.33-.36C260.29,127.25,260.88,127.89,260.88,127.89Z"/><ellipse class="cls-8" cx="255.99" cy="83.97" rx="9.13" ry="6.23"/><path class="cls-9" d="M274,108.54C274,88.45,268.46,83,256,83s-18,5.45-18,25.55c0,0,26.67-5.76,26.67-13.08C264.69,102.78,274,108.54,274,108.54Z"/><path class="cls-5" d="M237,114.77c.93,5.47,2.09,5.73,3.76,5.44L239,108.3C237.31,108.58,236,109.3,237,114.77Z"/><path class="cls-5" d="M273,108.3l-1.77,11.91c1.66.28,2.82,0,3.76-5.44S274.7,108.58,273,108.3Z"/><path class="cls-9" d="M240,109.41a8,8,0,0,1-.09-1.55,6.49,6.49,0,0,1,.11-1l-2,.76c0,.31,0,.63,0,.94l.61-.21-.05,0a11,11,0,0,1,1,2.29S240.34,111.24,240,109.41Z"/><path class="cls-9" d="M272,107.86a8.32,8.32,0,0,1-.09,1.55c-.29,1.82.51,1.23.51,1.23a11.07,11.07,0,0,1,1-2.29l.55.18c0-.32,0-.63,0-.94l-2-.76a6.53,6.53,0,0,1,.11,1"/><path class="cls-5" d="M276.83,434.08c-4-1-13.48-8.66-14.83-9.33-2.25-1.12-5.46-2.14-5.46-5.62,0-2.5.38-4.87.25-6.5-.64-8.33-4.15-24.3-4.79-34.37q-.22-3.49-.27-7.17c-.13-9.95,20.16-3.94,19.85-.35-1.24,14.39-4,39.39-5.08,44.52,0,0,14.81,10.42,14.33,14.17C280.54,431.69,280.83,435.08,276.83,434.08Z"/><path class="cls-2" d="M254.06,338.74a209.45,209.45,0,0,0-2.31,32.33c3.27-1.18,16.85-1.31,19.83-.35.31-3.58.53-6.52.59-8.31.33-9,.33-23,.33-23,.7-8.06,15.46-64,14.4-76.25a139.1,139.1,0,0,0-3.18-20.22h-13c-2.65,8-16.7,6.23-18.08,14.29.82,17.7,2,44.34,1.38,57.76C253.59,323.12,254.06,338.74,254.06,338.74Z"/><path class="cls-5" d="M260.45,365.62c2.93-12.4,2.11-17.72,2.11-17.72.4-2.48.39-5.45-2.44-7.48-2-1.46-4.18-2.54-5.43-3.58-6.39-5.37-16.55-13.19-23.69-20.33-2-2-3.37-3.59-5.33-5.67-6.83-7.23-15.26,14.08-12.17,15.92,12.42,7.38,32.88,17.35,37.66,19.5,0,0-.16,18.11,3.16,19.9C256.34,367.25,259.5,369.64,260.45,365.62Z"/><path class="cls-2" d="M213.13,298.63a113.07,113.07,0,0,1,12.54,12.21C222,318,218.25,324,213.5,326.75c-6.92-5.9-10.92-9.42-14.17-12.58-11.71-11.41-11.58-17.42-11.58-17.42.67-7.33,40.59-53.81,40.59-53.8h13c2.65,8,12.52,6.23,13.91,14.29,0,0,2.25,7.57-4.26,12.43C240.5,277.5,213.13,298.63,213.13,298.63Z"/><path class="cls-5" d="M256.5,169.92l-.08,23.83,5.71,1.33a277.32,277.32,0,0,0,30.54,6.67c11.67,1.67,19.67,3,25.43,3.39,3.51.24,6.78-1.14,7.16-2.27s-1.5-5.79-3-9.62c-3.54-9.19-22-41.42-31.11-46.17-6.5-3.4-16.19-3.84-16.19-3.84s4.27,22.76,6.9,22.88,4.63,3.46,11.25,11.25c3.88,4.88,6.71,8,11,13.38,0,0-8.54-1.5-41.56-3.22l-4-18.28Z"/><path class="cls-5" d="M255.42,169.92v23.83l-5.62,1.33a276,276,0,0,1-30.46,6.67c-11.67,1.67-19.67,3-25.43,3.39-3.51.24-6.78-1.14-7.16-2.27s1.5-5.79,3-9.62c3.54-9.19,22-41.42,31.11-46.17,6.5-3.4,16.19-3.84,16.19-3.84s-4.27,22.76-6.9,22.88-4.62,3.46-11.25,11.25c-3.87,4.88-6.71,8-11,13.38,0,0,8.46-1.5,41.48-3.22l4-18.28Z"/></svg>