<svg id="Layer_1" data-name="Layer 1" xmlns="http://www.w3.org/2000/svg" viewBox="0 0 512 512"><defs><style>.cls-1{fill:#ffefd6;}.cls-2{fill:#f4b382;}.cls-3{fill:#3d3c3c;}.cls-4{fill:#b3233b;}.cls-5{fill:#e2a379;}.cls-6{fill:#d6876b;}.cls-7{fill:#cc785e;}.cls-8{fill:#4c230c;}.cls-9{fill:#602f0f;}</style></defs><title>warrior pose knee bent</title><path class="cls-1" d="M7.92,256C7.92,119,119,7.92,256,7.92S504.08,119,504.08,256,393,504.08,256,504.08,7.92,393,7.92,256Z"/><path class="cls-2" d="M382.64,394.93c-4-.93-15.39,0-16.9-.1-3.63-.14-7.14-2.1-6.43-5.51.54-2.59,1-4.9.62-6.49-2.33-9.5-8.75-32.48-10-42.5a31.58,31.58,0,0,1-.5-5c.62-9.93,20-1.6,20.17,2,.67,14.83.5,27.5,1.1,47.91,0,0,19.29,1.2,18.88,4.95A5.78,5.78,0,0,1,382.64,394.93Z"/><path class="cls-3" d="M344.63,305.39c2,12.94,4.8,29.94,4.8,29.94,10-.78,17.44.46,20.17,2-1.33-26.67-3.86-41.35-6-50-2.72-11-78.25-13.81-79.12-16.81-1.69-5.82-34.16-1.75-35.22,6.35.56,6.47-7.1,2.57,5,16.12C268.26,308.67,344.63,305.39,344.63,305.39Z"/><path class="cls-3" d="M265.88,263.17a48.29,48.29,0,0,0-19.79,6.17c-10.17,5.67-11.21,13.83-14.5,16.5s12.08,29.51,18.33,25.83c11.76-6.91,42.88-19.57,38-25.67S265.88,263.17,265.88,263.17Z"/><path class="cls-2" d="M115.18,405.25c-1.61-3.8,1.75-7.58,1.75-10.25,0-2.52-.56-6.7,2.23-8.8,2-1.5,4.12-2.63,5.34-3.71,6.27-5.52,15.52-18.71,23.19-25.28,1.77-1.52,2.38-2.3,4.33-3.8,7.87-6.09,15.81,15.15,12.76,17.06-12.24,7.66-31.8,19.09-36.53,21.35,0,0,3.63,15.63.35,17.51C126.61,410.47,116.79,409.05,115.18,405.25Z"/><path class="cls-3" d="M189.49,349.51a209.63,209.63,0,0,1-24.72,21c-1-3.34-10.31-15.14-12.84-17,2.71-2.37,4.95-4.28,6.36-5.39C165.35,342.53,178,335,178,335c6.09-5.33,46.05-44.36,55.89-51.86a50.6,50.6,0,0,1,20.52-7.08s22.5,18.7,16.82,24.58c-14.73,9.78-54.76,32.56-61.8,36.62S189.49,349.51,189.49,349.51Z"/><path class="cls-2" d="M109.38,172.89c0-3.75,15.85-1.71,20.61-2.67l5.65,2.63c34.68-2.07,50.93.5,50.93.5,20.69-2.17,57.91-.89,65.72.51,4.72.75.35,21.44-5.49,21.45-9-.86-53.28-8.35-60.17-9.11-.95-.1-51-4.83-51-4.83a19.61,19.61,0,0,0-5.36,1.18c-4.59,1.57-11.51,1.16-15.24-.62A10.44,10.44,0,0,1,109.38,172.89Z"/><path class="cls-2" d="M125.06,171.81s-5,.39-5.48-2.25c-.41-2.21-.31-3,10.33.7C129.9,170.26,129.72,171.76,125.06,171.81Z"/><path class="cls-2" d="M433.62,172.89c0-3.75-15.85-1.71-20.61-2.67l-5.65,2.63c-34.68-2.07-50.93.5-50.93.5-20.69-2.17-57.9-.89-65.72.51-4.72.75-.35,21.44,5.48,21.45,9-.86,53.28-8.35,60.17-9.11.94-.1,51-4.83,51-4.83a19.62,19.62,0,0,1,5.36,1.18c4.59,1.57,11.51,1.16,15.24-.62A10.44,10.44,0,0,0,433.62,172.89Z"/><path class="cls-2" d="M417.94,171.81s5,.39,5.48-2.25c.4-2.21.31-3-10.33.7C413.1,170.26,413.28,171.76,417.94,171.81Z"/><path class="cls-4" d="M298,206.29c1.88-11.47-7.51-32.44-7.51-32.44a109.29,109.29,0,0,0-12.72-.79H265.2a108.8,108.8,0,0,0-12.68.78s-9.39,21-7.51,32.44c1.75,10.71,4.8,26.39-1.19,67.27a113.09,113.09,0,0,0,55.35,0C293.19,232.68,296.24,217,298,206.29Z"/><path class="cls-5" d="M279.95,161.56H263c2.64,8,.21,11.59.21,11.59s.51,5.22,8.25,5.22,8.23-5.22,8.23-5.22S277.3,169.52,279.95,161.56Z"/><path class="cls-2" d="M288.83,138.31c0-20.1-7.76-24.7-17.34-24.7s-17.34,4.6-17.34,24.7a39.78,39.78,0,0,0,3,16.24c4,9,10.94,12.21,14.3,12.21s10.29-3.16,14.3-12.21A39.79,39.79,0,0,0,288.83,138.31Z"/><path class="cls-6" d="M276.38,158.51a11.06,11.06,0,0,1-9.79,0,5,5,0,0,1,2.6-2.24,7.43,7.43,0,0,1,2.3.54,7.17,7.17,0,0,1,2.27-.54C274.82,156.42,276.38,158.51,276.38,158.51Z"/><path class="cls-7" d="M276.38,158.51a7,7,0,0,1-9.79,0s.51-.61,3.37-.79c.48,0,1.11.35,1.53.35s.91-.39,1.33-.36C275.79,157.88,276.38,158.51,276.38,158.51Z"/><ellipse class="cls-8" cx="271.49" cy="114.59" rx="9.13" ry="6.23"/><path class="cls-9" d="M289.46,139.16c0-20.09-5.51-25.55-18-25.55s-18,5.45-18,25.55c0,0,26.67-5.76,26.67-13.08C280.19,133.4,289.46,139.16,289.46,139.16Z"/><path class="cls-2" d="M252.48,145.39c.94,5.47,2.1,5.73,3.76,5.44l-1.77-11.91C252.8,139.2,251.54,139.92,252.48,145.39Z"/><path class="cls-2" d="M288.54,138.92l-1.77,11.91c1.66.28,2.82,0,3.76-5.44S290.19,139.2,288.54,138.92Z"/><path class="cls-9" d="M255.54,140a8,8,0,0,1-.09-1.55,6.59,6.59,0,0,1,.11-1l-2,.76c0,.31,0,.63,0,.94l.61-.21-.05,0a11,11,0,0,1,1,2.29S255.83,141.86,255.54,140Z"/><path class="cls-9" d="M287.53,138.48a8.32,8.32,0,0,1-.09,1.55c-.29,1.82.51,1.23.51,1.23a11.13,11.13,0,0,1,1-2.29l.55.18c0-.32,0-.63,0-.94l-2-.76a6.62,6.62,0,0,1,.11,1"/></svg>