<svg id="Layer_1" data-name="Layer 1" xmlns="http://www.w3.org/2000/svg" viewBox="0 0 512 512"><defs><style>.cls-1{fill:#ffefd6;}.cls-2{fill:#302f2f;}.cls-3{fill:#b3233b;}.cls-4{fill:#f4b382;}.cls-5{fill:#3d3c3c;}.cls-6{fill:#e2a379;}.cls-7{fill:#d6876b;}.cls-8{fill:#cc785e;}.cls-9{fill:#4c230c;}.cls-10{fill:#602f0f;}</style></defs><title>easy pose</title><path class="cls-1" d="M7.92,256C7.92,119,119,7.92,256,7.92S504.08,119,504.08,256,393,504.08,256,504.08,7.92,393,7.92,256Z"/><polygon class="cls-2" points="228.33 319.36 229.51 329.68 256 336.34 282.49 329.68 283.68 319.36 228.33 319.36"/><path class="cls-3" d="M282.49,252.09c1.88-11.47-7.51-32.44-7.51-32.44a109.4,109.4,0,0,0-12.72-.79H249.7a108.72,108.72,0,0,0-12.68.78s-9.39,21-7.51,32.44c1.75,10.71,4.8,26.39-1.19,67.27h55.35C277.69,278.48,280.74,262.8,282.49,252.09Z"/><path class="cls-4" d="M265.95,326.75c-14.84,5.28-31.61,11.11-35.67,11.14-17,.12-30.57,6.3-29.81,9.87,0,0,40,1,69.69,0C281.58,347.43,277.45,322.65,265.95,326.75Z"/><path class="cls-5" d="M265.94,326.75c11.51-4.09,21.82-8.07,24.2-8.32C310,316.33,321.6,320.69,321.6,336c0,10.75-13.1,11.79-24.64,11.79-6.21,0-15.38-.36-26.81,0A78.16,78.16,0,0,0,265.94,326.75Z"/><path class="cls-4" d="M244.53,318.86c15.74.49,33.5.92,37.37-.3,16.24-5.09,31-3.34,31.4.29,0,0-37.8,13.17-66.34,21.34C236,343.34,232.32,318.48,244.53,318.86Z"/><path class="cls-5" d="M244.53,318.86c-12.21-.38-25.49-3.83-30-4.93-9.2-2.26-19.87-5.59-22.65,9.74C189.15,338.73,205,340.25,216.38,342c7,1,19.59,1.38,30.58-1.77A78.19,78.19,0,0,1,244.53,318.86Z"/><path class="cls-4" d="M206.5,314.5l-23.33-1.92-.44-3,2.43-.29,6.64-.8.61-2.62,4.75-.25,4,.75,3.92-1.62L216,291.25a135.2,135.2,0,0,0-.25-26.25c-1.75-18.25.08-38.88,5.09-41.49,6.5-3.4,16.19-3.84,16.19-3.84s-4.27,22.8-6.9,22.88c-1,0-.13,24.45-.88,34.95-.64,8.94-.75,15.33-3,18.75S206.5,314.5,206.5,314.5Z"/><path class="cls-4" d="M308.13,320.5l23.33-1.92.44-3-2.43-.29-6.64-.8-.61-2.62-4.75-.25-4,.75-3.92-1.62L296,291.25a135.19,135.19,0,0,1,.25-26.25c1.75-18.25-.08-38.88-5.08-41.49-6.5-3.4-16.19-3.84-16.19-3.84s4.27,22.8,6.9,22.88c1,0,.13,24.45.88,34.95.64,8.94.75,15.33,3,18.75s16.67,17.92,16.67,17.92Z"/><path class="cls-6" d="M264.45,207.36H247.53c2.64,8,.21,11.59.21,11.59s.51,5.22,8.25,5.22,8.23-5.22,8.23-5.22S261.8,215.32,264.45,207.36Z"/><path class="cls-4" d="M273.33,184.11c0-20.1-7.76-24.7-17.34-24.7s-17.34,4.6-17.34,24.7a39.78,39.78,0,0,0,3,16.24c4,9,10.94,12.21,14.3,12.21s10.29-3.16,14.3-12.21A39.78,39.78,0,0,0,273.33,184.11Z"/><path class="cls-7" d="M260.88,204.31a11.06,11.06,0,0,1-9.79,0,5,5,0,0,1,2.6-2.24,7.43,7.43,0,0,1,2.3.54,7.17,7.17,0,0,1,2.27-.54C259.32,202.22,260.88,204.31,260.88,204.31Z"/><path class="cls-8" d="M260.88,204.31a7,7,0,0,1-9.79,0s.51-.61,3.37-.79c.48,0,1.11.35,1.53.35s.91-.39,1.33-.36C260.29,203.67,260.88,204.31,260.88,204.31Z"/><ellipse class="cls-9" cx="255.99" cy="160.39" rx="9.13" ry="6.23"/><path class="cls-10" d="M274,185c0-20.09-5.51-25.55-18-25.55s-18,5.45-18,25.55c0,0,26.67-5.76,26.67-13.08C264.69,179.2,274,185,274,185Z"/><path class="cls-4" d="M237,191.18c.93,5.47,2.09,5.73,3.76,5.44L239,184.72C237.31,185,236,185.71,237,191.18Z"/><path class="cls-4" d="M273,184.72l-1.77,11.91c1.66.28,2.82,0,3.76-5.44S274.69,185,273,184.72Z"/><path class="cls-10" d="M240,185.83a8,8,0,0,1-.09-1.55,6.49,6.49,0,0,1,.11-1l-2,.76c0,.31,0,.63,0,.94l.61-.21-.05,0a11,11,0,0,1,1,2.29S240.34,187.65,240,185.83Z"/><path class="cls-10" d="M272,184.28a8.31,8.31,0,0,1-.09,1.55c-.29,1.83.51,1.23.51,1.23a11.08,11.08,0,0,1,1-2.29l.55.18c0-.32,0-.63,0-.94l-2-.76a6.53,6.53,0,0,1,.11,1"/></svg>