<svg id="Layer_1" data-name="Layer 1" xmlns="http://www.w3.org/2000/svg" viewBox="0 0 512 512"><defs><style>.cls-1{fill:#ffefd6;}.cls-2{fill:#e2a379;}.cls-3{fill:#b3233b;}.cls-4{fill:#f4b382;}.cls-5{fill:#d6876b;}.cls-6{fill:#cc785e;}.cls-7{fill:#602f0f;}.cls-8{fill:#4c230c;}.cls-9{fill:#3d3c3c;}</style></defs><title>seated forward fold</title><path class="cls-1" d="M7.92,256C7.92,119,119,7.92,256,7.92S504.08,119,504.08,256,393,504.08,256,504.08,7.92,393,7.92,256Z"/><path class="cls-2" d="M358.29,286.29c1.54-3.42-13.68-8.18-17.59-11l-6.23,0c-30.64-16.39-47-16.93-47-16.93-17.88-10.63-46.51-28.42-54.2-30.41s-13.38,13-6.39,16.79,6.82,5.54,14,8.77S275.42,267.79,282,270c.91.3,48.86,13,48.86,13a19.69,19.69,0,0,1,4.37,3.31c3.52,3.35,10,5.87,14.1,5.82A10.45,10.45,0,0,0,358.29,286.29Z"/><path class="cls-2" d="M344.42,278.67s4.38,2.45,5.92.25c1.29-1.84,1.54-2.6-9.68-3.68C340.67,275.24,340.2,276.67,344.42,278.67Z"/><path class="cls-3" d="M232.72,276.12c10.29-6.69,7-16.89,13.87-29.87.86-1.63.14-10.4-2.06-13.69-2.45-3.67-5.61-7-10.51-7.67-3.78-.52-13.86.19-30.26,16.87-8,7.18-30.47,20.13-40.21,32.4-11.47,14.45-11.72,18.36-11.72,18.36l19.71,20.88c32.2-19.11,40.2-30.18,51.28-35.73C222.82,277.66,229.8,278,232.72,276.12Z"/><path class="cls-2" d="M249.14,240.65s5.43-7.7,10.83-13.93L253,215.22c-5,6.73-14.93,11.36-14.93,11.36,8.27,9.47,7.72,16.21,8.49,19.67Z"/><path class="cls-4" d="M280.74,223c6.12-1.78,7.31-7.34,7.65-10.75,1.07-10.56-3.18-14.87-9.34-19.45-8.16-6.06-27.21,13.14-29.18,17.28-5.14,10.79,5.13,24.13,10.34,28.24,5.73,4.52,5.76,1.4,7.31-1.06.06-.1.6-.22.6-.22a7.92,7.92,0,0,1,2.71-2.6,9.33,9.33,0,0,1,.59-1.29c.17-.27.31-.42.69-.3a7.74,7.74,0,0,0,2.67.55C276.69,233.11,277.9,223.87,280.74,223Z"/><path class="cls-5" d="M266.58,232.89s.31.76,3,2.75c.44.09,1.27.16,1.33-.93C270.92,233.9,268.64,234.06,266.58,232.89Z"/><path class="cls-6" d="M266.58,232.89s-.48,1.75,1.54,4.19a1.14,1.14,0,0,0,1,0,1.05,1.05,0,0,0,.38-1.46C266.89,233.65,266.58,232.89,266.58,232.89Z"/><path class="cls-7" d="M279.5,191.06c-10-7.39-33.86-2.9-32.84,24.06.07,1.8,1.15,4.68,6,4.66a23.24,23.24,0,0,0,6.51-1.08q1.39-.5,3-1.11c1.16-.44,4.17-5.83,5.31-5.24,10.9,5.71,18.89,3.63,20.83,1C291.72,206.27,290.12,198.94,279.5,191.06Z"/><path class="cls-4" d="M259.59,214.6c-1.8,5.52-.11,7.09,2.7,8.82l3.62-8,.7-3.75C263.81,210,261.38,209.08,259.59,214.6Z"/><path class="cls-8" d="M252.69,194.62c-.85-3.71,3.8-7.71,10.37-8.94s12.59.78,13.44,4.5-3.21,6.33-9.79,7.56S253.53,198.33,252.69,194.62Z"/><path class="cls-7" d="M267.65,214.16A12.94,12.94,0,0,1,269.1,212a10.63,10.63,0,0,1,1.18-1.28l-3.66-1.11-1,1.28,1.07.36-.1,0a18.11,18.11,0,0,1-.94,4.13S266.22,217,267.65,214.16Z"/><path class="cls-7" d="M251.26,193.13c-.89-3.91,4.22-8.17,11.42-9.52s13.76.74,14.65,4.65-3.57,6.71-10.77,8.05S252.15,197,251.26,193.13Z"/><path class="cls-8" d="M259.46,185.51c-.1-.44,1.6-1.12,3.8-1.53s4.06-.39,4.16,0-1.35.92-3.55,1.33S259.56,185.94,259.46,185.51Z"/><path class="cls-2" d="M350,296.56c-.93,4,0,15.39-.1,16.9-.14,3.63-2.1,7.14-5.51,6.43-2.59-.54-4.91-1.79-6.53-1.63-8.32.79-33.18,4.49-43.24,5.32q-3.48.28-7.17.4c-9.95.31-4.3-20.08-.71-19.84,14.41,1,48.41,3.42,53.56,4.37,0,0,1.2-19.29,4.95-18.89A5.78,5.78,0,0,1,350,296.56Z"/><path class="cls-4" d="M353,301.06c-.93,4,0,15.39-.1,16.9-.14,3.63-2.1,7.14-5.51,6.43-2.59-.54-4.91-1.79-6.53-1.63-8.32.79-33.18.29-43.24,1.11q-3.48.29-7.17.4c-9.95.31-4.3-20.08-.71-19.84,14.41,1,48.41,7.63,53.56,8.58,0,0,1.2-19.29,4.95-18.89A5.78,5.78,0,0,1,353,301.06Z"/><path class="cls-4" d="M361.49,294.84c1.71-3.34-13.25-8.86-17-11.92l-6.22-.29c-29.78-17.9-46.13-19.26-46.13-19.26-17.32-11.51-51.73-31.91-59.3-34.29s-14,12.27-7.22,16.45,13.23,7.08,20.26,10.67,33.8,16,40.27,18.53c.89.35,48.15,15.44,48.15,15.44a19.75,19.75,0,0,1,4.2,3.53c3.34,3.52,9.66,6.36,13.79,6.52A10.45,10.45,0,0,0,361.49,294.84Z"/><path class="cls-4" d="M348,286.54s4.25,2.67,5.9.54c1.38-1.77,1.67-2.52-9.48-4.16C344.45,282.92,343.91,284.33,348,286.54Z"/><path class="cls-9" d="M151.83,292.52c-3.2,15.24,1,35.43,21,36.23,17,.69,22.47-6.56,22.47-6.56s12.7-28.61,5.48-29.32c-5.91-.59-11-1.54-16-1.78-3.28-.16-14.06.36-22.4.82-.5,0-8.65-3.72-8.65-3.72A15.43,15.43,0,0,0,151.83,292.52Z"/><path class="cls-9" d="M258.47,322.3c11.4,1.91,22.32,1.86,32.27,2-1.1-3.3-.93-16.87.1-19.83-3.57-.39-31.12-3.93-31.12-3.93-8.72-1.45-60-10.6-76.15-9a71.21,71.21,0,0,0-10.9,1.56c-5.91,1.32-10.19,31.59-2.17,33.16,17.67-.42,56.57-5.12,64.67-5.83S258.47,322.3,258.47,322.3Z"/></svg>